<svg width="48" height="48" viewBox="0 0 48 48" fill="none" xmlns="http://www.w3.org/2000/svg">
<path d="M19.4621 30.6717H15.6053L14.7984 33H13L16.761 23H18.3133L22.0811 33H20.2758L19.4621 30.6717ZM16.0908 29.2706H18.9766L17.5337 25.1223L16.0908 29.2706Z" fill="#0B2362"/>
<path d="M19.4621 30.6717H15.6053L14.7984 33H13L16.761 23H18.3133L22.0811 33H20.2758L19.4621 30.6717ZM16.0908 29.2706H18.9766L17.5337 25.1223L16.0908 29.2706Z" fill="url(#paint0_linear_11_751)"/>
<path d="M24.9463 29.2843V33H23.2162V23H27.0251C28.1374 23 29.0195 23.2908 29.6714 23.8723C30.3279 24.4538 30.6561 25.223 30.6561 26.1799C30.6561 27.1598 30.3347 27.9222 29.692 28.467C29.0537 29.0119 28.1579 29.2843 27.0046 29.2843H24.9463ZM24.9463 27.8901H27.0251C27.6405 27.8901 28.1101 27.7459 28.4337 27.4574C28.7574 27.1644 28.9192 26.7431 28.9192 26.1937C28.9192 25.6534 28.7551 25.223 28.4269 24.9025C28.0987 24.5774 27.6473 24.4103 27.0729 24.4011H24.9463V27.8901Z" fill="#0B2362"/>
<path d="M24.9463 29.2843V33H23.2162V23H27.0251C28.1374 23 29.0195 23.2908 29.6714 23.8723C30.3279 24.4538 30.6561 25.223 30.6561 26.1799C30.6561 27.1598 30.3347 27.9222 29.692 28.467C29.0537 29.0119 28.1579 29.2843 27.0046 29.2843H24.9463ZM24.9463 27.8901H27.0251C27.6405 27.8901 28.1101 27.7459 28.4337 27.4574C28.7574 27.1644 28.9192 26.7431 28.9192 26.1937C28.9192 25.6534 28.7551 25.223 28.4269 24.9025C28.0987 24.5774 27.6473 24.4103 27.0729 24.4011H24.9463V27.8901Z" fill="url(#paint1_linear_11_751)"/>
<path d="M34 33H32.2768V23H34V33Z" fill="#0B2362"/>
<path d="M34 33H32.2768V23H34V33Z" fill="url(#paint2_linear_11_751)"/>
<path opacity="0.3" fill-rule="evenodd" clip-rule="evenodd" d="M4 40.5C4 41.3284 4.67157 42 5.5 42H42.5C43.3284 42 44 41.3284 44 40.5V15.5C44 14.6716 43.3284 14 42.5 14H20L14.4393 8.43934C14.158 8.15804 13.7765 8 13.3787 8H5.5C4.67157 8 4 8.67157 4 9.5V40.5Z" fill="#0B2362"/>
<defs>
<linearGradient id="paint0_linear_11_751" x1="23.5" y1="23" x2="23.5" y2="33" gradientUnits="userSpaceOnUse">
<stop stop-color="#0B2362"/>
<stop offset="1" stop-color="#6E49D5"/>
</linearGradient>
<linearGradient id="paint1_linear_11_751" x1="23.5" y1="23" x2="23.5" y2="33" gradientUnits="userSpaceOnUse">
<stop stop-color="#0B2362"/>
<stop offset="1" stop-color="#6E49D5"/>
</linearGradient>
<linearGradient id="paint2_linear_11_751" x1="23.5" y1="23" x2="23.5" y2="33" gradientUnits="userSpaceOnUse">
<stop stop-color="#0B2362"/>
<stop offset="1" stop-color="#6E49D5"/>
</linearGradient>
</defs>
</svg>
