<svg width="48" height="48" viewBox="0 0 48 48" fill="none" xmlns="http://www.w3.org/2000/svg">
<path d="M10 38H40C41.1046 38 42 38.8954 42 40C42 41.1046 41.1046 42 40 42H8C6.89543 42 6 41.1046 6 40V8C6 6.89543 6.89543 6 8 6C9.10457 6 10 6.89543 10 8V38Z" fill="#0B2362"/>
<path d="M10 38H40C41.1046 38 42 38.8954 42 40C42 41.1046 41.1046 42 40 42H8C6.89543 42 6 41.1046 6 40V8C6 6.89543 6.89543 6 8 6C9.10457 6 10 6.89543 10 8V38Z" fill="url(#paint0_linear_11_704)"/>
<path opacity="0.3" d="M17.4591 29.3679C16.7036 30.1737 15.4379 30.2146 14.6321 29.4591C13.8263 28.7036 13.7855 27.438 14.5409 26.6321L22.0409 18.6321C22.7716 17.8528 23.9856 17.7852 24.7982 18.4786L30.7177 23.5299L38.4302 13.7607C39.1147 12.8938 40.3723 12.7458 41.2393 13.4303C42.1063 14.1147 42.2542 15.3724 41.5698 16.2393L32.5698 27.6393C31.8668 28.5297 30.5647 28.6578 29.7018 27.9214L23.6537 22.7603L17.4591 29.3679Z" fill="#0B2362"/>
<defs>
<linearGradient id="paint0_linear_11_704" x1="24" y1="6" x2="24" y2="42" gradientUnits="userSpaceOnUse">
<stop stop-color="#0B2362"/>
<stop offset="1" stop-color="#6E49D5"/>
</linearGradient>
</defs>
</svg>
