<svg width="177" height="28" viewBox="0 0 177 28" fill="none" xmlns="http://www.w3.org/2000/svg">
<path d="M21.8086 18.334C21.7266 20.1152 21.2461 21.6914 20.3672 23.0625C19.4883 24.4219 18.252 25.4766 16.6582 26.2266C15.0762 26.9766 13.2656 27.3516 11.2266 27.3516C7.86328 27.3516 5.21484 26.2559 3.28125 24.0645C1.34766 21.873 0.380859 18.7793 0.380859 14.7832V13.5176C0.380859 11.0098 0.814453 8.81836 1.68164 6.94336C2.56055 5.05664 3.82031 3.60352 5.46094 2.58398C7.10156 1.55273 9 1.03711 11.1562 1.03711C14.2617 1.03711 16.7578 1.85742 18.6445 3.49805C20.5312 5.12695 21.6035 7.37695 21.8613 10.248H15.709C15.6621 8.68945 15.2695 7.57031 14.5312 6.89062C13.793 6.21094 12.668 5.87109 11.1562 5.87109C9.62109 5.87109 8.49609 6.44531 7.78125 7.59375C7.06641 8.74219 6.69141 10.5762 6.65625 13.0957V14.9062C6.65625 17.6367 6.99609 19.5879 7.67578 20.7598C8.36719 21.9316 9.55078 22.5176 11.2266 22.5176C12.6445 22.5176 13.7285 22.1836 14.4785 21.5156C15.2285 20.8477 15.627 19.7871 15.6738 18.334H21.8086ZM35.168 27C34.957 26.6133 34.7695 26.0449 34.6055 25.2949C33.5156 26.666 31.9922 27.3516 30.0352 27.3516C28.2422 27.3516 26.7188 26.8125 25.4648 25.7344C24.2109 24.6445 23.584 23.2793 23.584 21.6387C23.584 19.5762 24.3457 18.0176 25.8691 16.9629C27.3926 15.9082 29.6074 15.3809 32.5137 15.3809H34.3418V14.3789C34.3418 12.6328 33.5859 11.7598 32.0742 11.7598C30.668 11.7598 29.9648 12.4512 29.9648 13.834H24.041C24.041 11.9941 24.8203 10.5 26.3789 9.35156C27.9492 8.20313 29.9473 7.62891 32.373 7.62891C34.7988 7.62891 36.7148 8.2207 38.1211 9.4043C39.5273 10.5879 40.248 12.2109 40.2832 14.2734V22.6934C40.3066 24.4395 40.5762 25.7754 41.0918 26.7012V27H35.168ZM31.459 23.1328C32.1973 23.1328 32.8066 22.9746 33.2871 22.6582C33.7793 22.3418 34.1309 21.9844 34.3418 21.5859V18.5449H32.6191C30.5566 18.5449 29.5254 19.4707 29.5254 21.3223C29.5254 21.8613 29.707 22.3008 30.0703 22.6406C30.4336 22.9688 30.8965 23.1328 31.459 23.1328ZM55.084 13.3418L53.1328 13.2012C51.2695 13.2012 50.0742 13.7871 49.5469 14.959V27H43.623V7.98047H49.1777L49.3711 10.4238C50.3672 8.56055 51.7559 7.62891 53.5371 7.62891C54.1699 7.62891 54.7207 7.69922 55.1895 7.83984L55.084 13.3418ZM56.1211 17.3496C56.1211 14.3379 56.7715 11.9648 58.0723 10.2305C59.373 8.49609 61.1895 7.62891 63.5215 7.62891C65.2207 7.62891 66.6504 8.29688 67.8105 9.63281V0H73.752V27H68.4258L68.127 24.9609C66.9082 26.5547 65.3613 27.3516 63.4863 27.3516C61.2246 27.3516 59.4316 26.4844 58.1074 24.75C56.7832 23.0156 56.1211 20.5488 56.1211 17.3496ZM62.0449 17.7188C62.0449 21.0938 63.0293 22.7812 64.998 22.7812C66.3105 22.7812 67.248 22.2305 67.8105 21.1289V13.8867C67.2715 12.7617 66.3457 12.1992 65.0332 12.1992C63.2051 12.1992 62.2148 13.6758 62.0625 16.6289L62.0449 17.7188Z" fill="#6CBBFF"/>
<path d="M94.8809 27H77.0215V23.1328L85.248 14.4844C87.2754 12.1758 88.2891 10.3418 88.2891 8.98242C88.2891 7.88086 88.0488 7.04297 87.5684 6.46875C87.0879 5.89453 86.3906 5.60742 85.4766 5.60742C84.5742 5.60742 83.8418 5.99414 83.2793 6.76758C82.7168 7.5293 82.4355 8.48438 82.4355 9.63281H76.4941C76.4941 8.0625 76.8867 6.61523 77.6719 5.29102C78.457 3.95508 79.5469 2.91211 80.9414 2.16211C82.3359 1.41211 83.8945 1.03711 85.6172 1.03711C88.3828 1.03711 90.5098 1.67578 91.998 2.95312C93.498 4.23047 94.248 6.06445 94.248 8.45508C94.248 9.46289 94.0605 10.4473 93.6855 11.4082C93.3105 12.3574 92.7246 13.3594 91.9277 14.4141C91.1426 15.457 89.8711 16.8574 88.1133 18.6152L84.8086 22.4297H94.8809V27ZM118.945 18.334C118.863 20.1152 118.383 21.6914 117.504 23.0625C116.625 24.4219 115.389 25.4766 113.795 26.2266C112.213 26.9766 110.402 27.3516 108.363 27.3516C105 27.3516 102.352 26.2559 100.418 24.0645C98.4844 21.873 97.5176 18.7793 97.5176 14.7832V13.5176C97.5176 11.0098 97.9512 8.81836 98.8184 6.94336C99.6973 5.05664 100.957 3.60352 102.598 2.58398C104.238 1.55273 106.137 1.03711 108.293 1.03711C111.398 1.03711 113.895 1.85742 115.781 3.49805C117.668 5.12695 118.74 7.37695 118.998 10.248H112.846C112.799 8.68945 112.406 7.57031 111.668 6.89062C110.93 6.21094 109.805 5.87109 108.293 5.87109C106.758 5.87109 105.633 6.44531 104.918 7.59375C104.203 8.74219 103.828 10.5762 103.793 13.0957V14.9062C103.793 17.6367 104.133 19.5879 104.812 20.7598C105.504 21.9316 106.688 22.5176 108.363 22.5176C109.781 22.5176 110.865 22.1836 111.615 21.5156C112.365 20.8477 112.764 19.7871 112.811 18.334H118.945ZM132.305 27C132.094 26.6133 131.906 26.0449 131.742 25.2949C130.652 26.666 129.129 27.3516 127.172 27.3516C125.379 27.3516 123.855 26.8125 122.602 25.7344C121.348 24.6445 120.721 23.2793 120.721 21.6387C120.721 19.5762 121.482 18.0176 123.006 16.9629C124.529 15.9082 126.744 15.3809 129.65 15.3809H131.479V14.3789C131.479 12.6328 130.723 11.7598 129.211 11.7598C127.805 11.7598 127.102 12.4512 127.102 13.834H121.178C121.178 11.9941 121.957 10.5 123.516 9.35156C125.086 8.20313 127.084 7.62891 129.51 7.62891C131.936 7.62891 133.852 8.2207 135.258 9.4043C136.664 10.5879 137.385 12.2109 137.42 14.2734V22.6934C137.443 24.4395 137.713 25.7754 138.229 26.7012V27H132.305ZM128.596 23.1328C129.334 23.1328 129.943 22.9746 130.424 22.6582C130.916 22.3418 131.268 21.9844 131.479 21.5859V18.5449H129.756C127.693 18.5449 126.662 19.4707 126.662 21.3223C126.662 21.8613 126.844 22.3008 127.207 22.6406C127.57 22.9688 128.033 23.1328 128.596 23.1328ZM150.674 21.6562C150.674 21.1523 150.41 20.748 149.883 20.4434C149.355 20.1387 148.354 19.8223 146.877 19.4941C145.4 19.166 144.182 18.7383 143.221 18.2109C142.26 17.6719 141.527 17.0215 141.023 16.2598C140.52 15.498 140.268 14.625 140.268 13.6406C140.268 11.8945 140.988 10.459 142.43 9.33398C143.871 8.19727 145.758 7.62891 148.09 7.62891C150.598 7.62891 152.613 8.19727 154.137 9.33398C155.66 10.4707 156.422 11.9648 156.422 13.8164H150.48C150.48 12.293 149.678 11.5312 148.072 11.5312C147.451 11.5312 146.93 11.707 146.508 12.0586C146.086 12.3984 145.875 12.8262 145.875 13.3418C145.875 13.8691 146.133 14.2969 146.648 14.625C147.164 14.9531 147.984 15.2227 149.109 15.4336C150.246 15.6445 151.242 15.8965 152.098 16.1895C154.957 17.1738 156.387 18.9375 156.387 21.4805C156.387 23.2148 155.613 24.627 154.066 25.7168C152.531 26.8066 150.539 27.3516 148.09 27.3516C146.461 27.3516 145.008 27.0586 143.73 26.4727C142.453 25.8867 141.457 25.0898 140.742 24.082C140.027 23.0742 139.67 22.0137 139.67 20.9004H145.207C145.23 21.7793 145.523 22.4238 146.086 22.834C146.648 23.2324 147.369 23.4316 148.248 23.4316C149.057 23.4316 149.66 23.2676 150.059 22.9395C150.469 22.6113 150.674 22.1836 150.674 21.6562ZM164.965 10.0195C166.23 8.42578 167.848 7.62891 169.816 7.62891C171.914 7.62891 173.496 8.25 174.562 9.49219C175.629 10.7344 176.174 12.5684 176.197 14.9941V27H170.256V15.1348C170.256 14.127 170.051 13.3887 169.641 12.9199C169.23 12.4395 168.533 12.1992 167.549 12.1992C166.33 12.1992 165.469 12.5859 164.965 13.3594V27H159.041V0H164.965V10.0195Z" fill="white"/>
</svg>
