<svg width="285" height="38" viewBox="0 0 285 38" fill="none" xmlns="http://www.w3.org/2000/svg">
<path d="M76.9702 30.8115H71.9742L82.105 7.41821H91.9583C93.7625 7.41821 95.0115 7.55582 95.9829 7.96864C96.9544 8.38147 97.5095 9.0695 97.9258 9.89515C98.3421 10.7208 98.3421 11.9593 98.0646 13.1977C97.787 14.4362 97.3707 15.5371 96.538 16.6379C95.8441 17.7388 95.0115 18.702 94.1788 19.3901C93.3461 20.0781 92.5134 20.6285 91.6808 20.9038C90.8481 21.3166 89.7379 21.4542 88.3501 21.7294C87.5174 21.867 86.1296 21.867 83.9092 21.867H80.7173L76.9702 30.8115ZM82.5214 18.014H84.0479C86.6847 18.014 88.4889 17.8764 89.4603 17.6012C90.293 17.1884 91.1257 16.6379 91.8195 15.9499C92.5134 15.2618 92.9298 14.5738 93.0686 13.6106C93.2073 13.0601 93.2073 12.6473 92.9298 12.2345C92.6522 11.8217 92.5134 11.5464 91.9583 11.4088C91.542 11.2712 90.5705 11.1336 88.9052 11.1336H85.297L82.5214 18.014Z" fill="#6CBBFF"/>
<path d="M108.887 25.5822H99.3109L95.2864 30.8113H90.1516L108.887 7.41797H114.438L113.189 30.8113H108.47L108.887 25.5822ZM109.164 21.7292L109.719 12.3718L101.809 21.8668L109.164 21.7292Z" fill="#6CBBFF"/>
<path d="M125.817 30.8113H120.821L124.706 21.7292L121.376 7.41797H126.649L128.176 14.0231C128.592 15.6744 128.731 16.7753 128.87 17.4633C129.425 16.7753 130.119 16.0873 130.813 15.2616L133.727 12.0966L138.168 7.41797H143.858L129.702 22.142L125.817 30.8113Z" fill="#6CBBFF"/>
<path d="M141.221 30.8113H136.225L146.356 7.41797H156.209C158.013 7.41797 159.262 7.55558 160.234 7.9684C161.205 8.38122 161.76 9.06926 162.177 9.89491C162.593 10.8582 162.593 11.959 162.315 13.1975C162.038 14.436 161.622 15.5368 160.789 16.6377C160.095 17.7385 159.262 18.7018 158.43 19.3898C157.597 20.0779 156.764 20.6283 155.932 20.9035C155.099 21.3163 153.989 21.454 152.601 21.7292C151.768 21.8668 150.381 21.8668 148.16 21.8668H144.968L141.221 30.8113ZM146.633 18.0138H148.16C150.797 18.0138 152.601 17.8762 153.572 17.6009C154.544 17.3257 155.377 16.7753 155.932 16.0873C156.626 15.3992 157.042 14.5736 157.181 13.7479C157.319 13.1975 157.319 12.7847 157.042 12.3718C156.903 11.959 156.626 11.6838 156.07 11.5462C155.515 11.4086 154.683 11.271 153.017 11.271H149.409L146.633 18.0138Z" fill="white"/>
<path d="M162.178 21.5915C162.455 20.2154 163.01 18.7017 163.704 17.188C164.676 15.1239 165.925 13.335 167.451 11.8213C168.978 10.3076 170.643 9.06915 172.586 8.24351C174.529 7.41786 176.611 6.86743 178.831 6.86743C181.746 6.86743 183.966 7.83069 185.493 9.61959C187.019 11.4085 187.297 13.7478 186.742 16.7752C186.186 19.2521 185.076 21.5915 183.411 23.9308C181.746 26.2701 179.664 28.059 177.443 29.2975C175.084 30.536 172.725 31.224 170.088 31.224C167.868 31.224 166.064 30.6736 164.815 29.7103C163.566 28.7471 162.733 27.5086 162.317 25.9949C161.9 24.6188 161.9 23.1051 162.178 21.5915ZM167.174 21.5915C166.757 23.2427 167.035 24.4812 167.868 25.5821C168.7 26.6829 169.811 27.2334 171.476 27.2334C172.864 27.2334 174.251 26.8205 175.639 25.9949C177.027 25.1693 178.415 23.7932 179.525 22.1419C180.774 20.353 181.468 18.7017 181.884 17.0504C182.301 15.2615 182.023 13.7478 181.329 12.647C180.497 11.5461 179.386 11.1333 177.721 11.1333C175.362 11.1333 173.141 12.2341 171.06 14.4359C168.978 16.5 167.729 18.9769 167.174 21.5915Z" fill="white"/>
<path d="M187.16 23.2421L191.879 22.9669C191.601 24.4806 191.601 25.4438 192.018 25.8566C192.573 26.6823 193.822 27.0951 195.765 27.0951C197.43 27.0951 198.679 26.8199 199.512 26.2695C200.344 25.719 200.9 25.031 201.038 24.2054C201.177 23.5173 201.038 22.9669 200.483 22.4165C200.206 22.0036 199.095 21.4532 197.43 20.7652C195.765 19.9395 194.516 19.2515 193.822 18.8387C193.128 18.2882 192.573 17.6002 192.295 16.7745C192.018 15.9489 192.018 14.9856 192.157 13.8848C192.573 11.9583 193.683 10.307 195.487 8.9309C197.291 7.69243 199.512 7.00439 202.287 7.00439C205.063 7.00439 207.145 7.69243 208.394 8.9309C209.643 10.1694 210.198 11.9583 209.781 14.0224L204.924 14.16C205.063 13.0591 204.785 12.2335 204.23 11.5454C203.675 10.995 202.704 10.5822 201.316 10.5822C199.928 10.5822 198.957 10.8574 198.263 11.2702C197.569 11.6831 197.153 12.3711 197.014 13.0591C196.875 13.7472 197.014 14.2976 197.43 14.7104C197.846 15.1232 198.957 15.8113 200.622 16.4993C203.12 17.6002 204.647 18.5634 205.34 19.3891C206.173 20.4899 206.451 21.866 206.173 23.5173C205.757 25.5814 204.508 27.3703 202.565 28.7464C200.622 30.1225 198.124 30.9481 195.071 30.9481C192.989 30.9481 191.324 30.6729 189.936 29.9849C188.548 29.2968 187.716 28.3336 187.299 27.0951C186.883 26.1319 186.883 24.7558 187.16 23.2421Z" fill="white"/>
<path d="M217.692 30.8113H212.695L221.161 11.271H214.083L215.749 7.41797H234.761L233.096 11.271H226.157L217.692 30.8113Z" fill="white"/>
<path d="M227.27 26.407H231.989L230.046 30.8104H225.328L227.27 26.407Z" fill="white"/>
<path d="M234.627 30.8113L244.758 7.41797H249.754L245.452 17.3257L258.775 7.41797H265.436L252.53 16.6377L257.387 30.8113H251.836L248.366 19.6651L242.815 23.6557L239.762 30.8113H234.627Z" fill="white"/>
<path d="M258.355 30.8113L259.882 27.0959L277.229 11.271H265.988L267.654 7.41797H285.001L283.613 11.1334L266.127 27.0959C267.654 27.0959 268.486 27.0959 268.764 27.0959C269.874 27.0959 271.262 27.0959 273.066 27.0959H278.756L277.091 30.9489L258.355 30.8113Z" fill="white"/>
<path d="M52.3195 18.7346C43.2989 20.2483 34.2783 21.762 28.0333 22.8629C21.7882 23.9637 18.5963 24.2389 15.4044 24.5141C12.4901 24.7894 9.43694 24.7894 6.52259 24.5141C4.30214 24.2389 2.08168 23.9637 0 23.4133C2.63679 24.6518 5.41236 25.615 8.32672 26.303C12.4901 27.2663 16.7922 27.6791 21.0943 27.5415C25.5353 27.4039 29.8374 26.9911 34.2783 26.303L41.6336 25.4774C40.5233 26.8535 39.8295 28.3672 39.2743 30.0185C38.858 31.6697 38.9968 33.321 39.5519 34.9723C39.9682 36.0732 40.6621 37.1741 41.6336 37.9997C42.1887 35.3852 43.0214 32.9082 43.9928 30.5689C45.103 28.0919 46.4908 25.8902 48.1562 23.6885C49.4052 21.8996 50.793 20.2483 52.3195 18.7346Z" fill="white"/>
<path d="M9.60748 19.2651C18.6281 17.7514 27.6487 16.2378 33.8937 15.1369C40.1388 14.036 43.3307 13.7608 46.5226 13.4856C49.4369 13.2104 52.4901 13.2104 55.4044 13.4856C57.6249 13.7608 59.8453 14.036 61.927 14.5865C59.2902 13.348 56.5146 12.3848 53.6003 11.6967C49.4369 10.7335 45.1348 10.3206 40.8327 10.4582C36.3917 10.5958 32.0896 11.0087 27.6487 11.6967L20.2934 12.5224C21.4037 11.1463 22.0975 9.63259 22.6527 7.9813C23.069 6.33001 22.9302 4.67872 22.3751 3.02742C21.9588 1.92656 21.2649 0.825701 20.2934 5.36282e-05C19.7383 2.6146 18.9056 5.09154 17.9342 7.43087C16.824 9.90781 15.4362 12.1095 13.7708 14.3113C12.5218 16.1002 11.134 17.7514 9.60748 19.2651Z" fill="#57B2FF"/>
</svg>
