<svg width="174" height="24" viewBox="0 0 174 24" fill="none" xmlns="http://www.w3.org/2000/svg">
<path d="M57.8067 19.1554H54.5864L61.1165 4.07666H67.4677C68.6306 4.07666 69.4357 4.16536 70.0619 4.43145C70.688 4.69755 71.0458 5.14104 71.3142 5.67324C71.5826 6.29413 71.5826 7.00371 71.4037 7.802C71.2248 8.60029 70.9564 9.30988 70.4197 10.0195C69.9724 10.7291 69.4357 11.3499 68.899 11.7934C68.3622 12.2369 67.8255 12.5917 67.2888 12.7691C66.7521 13.0352 66.0365 13.1239 65.1419 13.3013C64.6052 13.39 63.7107 13.39 62.2794 13.39H60.222L57.8067 19.1554ZM61.2954 10.9065H62.2794C63.979 10.9065 65.1419 10.8178 65.7681 10.6404C66.3943 10.463 66.931 10.1082 67.2888 9.66467C67.7361 9.22118 68.0044 8.68899 68.0939 8.1568C68.1833 7.802 68.1833 7.53591 68.0044 7.26981C67.915 7.00371 67.7361 6.82632 67.3783 6.73762C67.0204 6.64892 66.4837 6.56022 65.4103 6.56022H63.0845L61.2954 10.9065Z" fill="#3963CD"/>
<path d="M94.8311 13.5672C95.01 12.6802 95.3678 11.7045 95.8151 10.7288C96.4413 9.39833 97.2463 8.24525 98.2303 7.26957C99.2143 6.29388 100.288 5.49559 101.54 4.9634C102.792 4.43121 104.134 4.07642 105.566 4.07642C107.444 4.07642 108.875 4.69731 109.859 5.85039C110.843 7.00347 111.022 8.51135 110.664 10.4627C110.307 12.0593 109.591 13.5672 108.517 15.075C107.444 16.5829 106.102 17.736 104.671 18.5343C103.15 19.3326 101.63 19.7761 99.9299 19.7761C98.4987 19.7761 97.3358 19.4213 96.5307 18.8004C95.7256 18.1795 95.1889 17.3812 94.9206 16.4055C94.6522 15.5185 94.6522 14.5429 94.8311 13.5672ZM98.0514 13.5672C97.7831 14.6316 97.962 15.4298 98.4987 16.1394C99.0354 16.849 99.751 17.2038 100.824 17.2038C101.719 17.2038 102.614 16.9377 103.508 16.4055C104.403 15.8733 105.297 14.9863 106.013 13.922C106.818 12.7689 107.265 11.7045 107.533 10.6401C107.802 9.48703 107.623 8.51135 107.176 7.80176C106.639 7.09217 105.923 6.82607 104.85 6.82607C103.329 6.82607 101.898 7.53566 100.556 8.95484C99.2143 10.2853 98.4092 11.8819 98.0514 13.5672Z" fill="#3963CD"/>
<path d="M110.935 14.5431L113.976 14.3657C113.797 15.3414 113.797 15.9623 114.066 16.2284C114.423 16.7606 115.228 17.0267 116.481 17.0267C117.554 17.0267 118.359 16.8493 118.896 16.4945C119.433 16.1397 119.791 15.6962 119.88 15.164C119.969 14.7205 119.88 14.3657 119.522 14.0109C119.343 13.7448 118.628 13.39 117.554 12.9465C116.481 12.4143 115.676 11.9708 115.228 11.7047C114.781 11.3499 114.423 10.9065 114.244 10.3743C114.066 9.84207 114.066 9.22118 114.155 8.51159C114.423 7.26981 115.139 6.20543 116.302 5.31844C117.465 4.52015 118.896 4.07666 120.685 4.07666C122.474 4.07666 123.816 4.52015 124.621 5.31844C125.426 6.11673 125.784 7.26981 125.516 8.60029L122.385 8.68899C122.474 7.9794 122.295 7.44721 121.937 7.00371C121.58 6.64892 120.953 6.38282 120.059 6.38282C119.164 6.38282 118.538 6.56022 118.091 6.82632C117.644 7.09241 117.375 7.53591 117.286 7.9794C117.196 8.42289 117.286 8.77769 117.554 9.04378C117.823 9.30988 118.538 9.75337 119.612 10.1969C121.222 10.9065 122.206 11.5273 122.653 12.0595C123.19 12.7691 123.369 13.6561 123.19 14.7205C122.921 16.051 122.116 17.2041 120.864 18.091C119.612 18.978 118.002 19.5102 116.034 19.5102C114.692 19.5102 113.618 19.3328 112.724 18.8893C111.829 18.4458 111.292 17.8249 111.024 17.0267C110.756 16.4058 110.756 15.5188 110.935 14.5431Z" fill="#3963CD"/>
<path d="M130.614 19.1554H127.394L132.851 6.56022H128.288L129.362 4.07666H141.617L140.543 6.56022H136.071L130.614 19.1554Z" fill="#3963CD"/>
<path d="M136.789 16.3237H139.83L138.578 19.1621H135.536L136.789 16.3237Z" fill="#3963CD"/>
<path d="M141.53 19.1554L148.061 4.07666H151.281L148.508 10.463L157.095 4.07666H161.389L153.07 10.0195L156.201 19.1554H152.623L150.386 11.9708L146.808 14.5431L144.84 19.1554H141.53Z" fill="#3963CD"/>
<path d="M156.825 19.1554L157.809 16.7606L168.991 6.56022H161.745L162.818 4.07666H174L173.105 6.47152L161.834 16.7606C162.818 16.7606 163.355 16.7606 163.534 16.7606C164.25 16.7606 165.144 16.7606 166.307 16.7606H169.975L168.901 19.2441L156.825 19.1554Z" fill="#3963CD"/>
<path d="M73.8207 19.1499H70.5662L76.2187 4.07666H79.987L73.8207 19.1499Z" fill="#3963CD"/>
<path d="M81.3231 19.1554H78.1028L84.6329 4.07666H90.9841C92.147 4.07666 92.952 4.16536 93.5782 4.43145C94.2044 4.69755 94.5622 5.14104 94.8306 5.67324C95.0989 6.29413 95.0989 7.00371 94.92 7.802C94.7411 8.60029 94.4727 9.30988 93.936 10.0195C93.4888 10.7291 92.952 11.3499 92.4153 11.7934C91.8786 12.2369 91.3419 12.5917 90.8052 12.7691C90.2684 13.0352 89.5528 13.1239 88.6583 13.3013C88.1216 13.39 87.227 13.39 85.7958 13.39H83.7383L81.3231 19.1554ZM84.8118 10.9065H85.7958C87.4954 10.9065 88.6583 10.8178 89.2845 10.6404C89.9106 10.463 90.4473 10.1082 90.8052 9.66467C91.2524 9.22118 91.5208 8.68899 91.6102 8.1568C91.6997 7.802 91.6997 7.53591 91.5208 7.26981C91.4313 7.00371 91.2524 6.82632 90.8946 6.73762C90.5368 6.64892 90.0001 6.56022 88.9266 6.56022H86.6009L84.8118 10.9065Z" fill="#3963CD"/>
<path d="M48.7632 15.7849H42.5909L39.9968 19.1554H36.687L48.7632 4.07666H52.3413L51.5363 19.1554H48.4948L48.7632 15.7849ZM48.9421 13.3013L49.2999 7.26981L44.2011 13.39L48.9421 13.3013Z" fill="#3963CD"/>
<path d="M30.1464 7.3523C25.2028 6.87852 20.2592 6.40474 16.8292 6.10449C13.3993 5.80425 11.6866 5.50004 9.97393 5.19582C8.40682 4.93062 6.8056 4.50157 5.31583 3.94769C4.18998 3.49132 3.06413 3.03495 2.04974 2.45374C3.25857 3.4738 4.57887 4.36902 6.01062 5.13941C8.05874 6.22966 10.257 7.05073 12.5326 7.58313C14.881 8.13502 17.1953 8.52308 19.621 8.78631L23.5945 9.38691C22.8189 9.95258 22.2423 10.6489 21.7191 11.4369C21.2687 12.2445 21.1094 13.13 21.1685 14.074C21.2321 14.7099 21.4414 15.3847 21.8348 15.9543C22.4934 14.6611 23.2781 13.479 24.1164 12.3887C25.0467 11.2457 26.0839 10.286 27.2667 9.36531C28.1731 8.60263 29.133 7.93163 30.1464 7.3523Z" fill="#3963CD"/>
<path d="M0.000104114 16.5266C4.78499 16.9851 9.56987 17.4437 12.8897 17.7343C16.2095 18.0249 17.8672 18.3194 19.5249 18.6138C21.0417 18.8705 22.5915 19.2858 24.0334 19.8219C25.1231 20.2636 26.2128 20.7053 27.1947 21.2679C26.0246 20.2806 24.7467 19.4141 23.3609 18.6684C21.3786 17.6132 19.2509 16.8185 17.0484 16.3032C14.7754 15.769 12.5354 15.3934 10.1875 15.1386L6.34157 14.5573C7.09231 14.0098 7.65042 13.3358 8.15681 12.5731C8.59275 11.7915 8.7469 10.9344 8.68972 10.0207C8.62812 9.40522 8.42562 8.75202 8.0448 8.20078C7.40739 9.45246 6.64782 10.5965 5.83651 11.6519C4.93604 12.7582 3.93211 13.6871 2.78729 14.5782C1.90996 15.3164 0.980896 15.9658 0.000104114 16.5266Z" fill="#3963CD"/>
</svg>
