<svg width="214" height="29" viewBox="0 0 214 29" fill="none" xmlns="http://www.w3.org/2000/svg">
<path d="M70.9053 23.4958H66.9553L74.9651 5.00027H82.7554C84.1818 5.00027 85.1693 5.10907 85.9374 5.43546C86.7054 5.76185 87.1443 6.30584 87.4735 6.95862C87.8027 7.7202 87.8027 8.59058 87.5832 9.56975C87.3638 10.5489 87.0346 11.4193 86.3763 12.2897C85.8277 13.1601 85.1693 13.9216 84.511 14.4656C83.8526 15.0096 83.1943 15.4448 82.536 15.6624C81.8776 15.9888 80.9998 16.0976 79.9026 16.3152C79.2443 16.424 78.147 16.424 76.3915 16.424H73.8679L70.9053 23.4958ZM75.1845 13.3776H76.3915C78.4762 13.3776 79.9026 13.2689 80.6707 13.0513C81.4387 12.8337 82.0971 12.3985 82.536 11.8545C83.0846 11.3105 83.4137 10.6577 83.5235 10.0049C83.6332 9.56975 83.6332 9.24336 83.4137 8.91697C83.304 8.59058 83.0846 8.37298 82.6457 8.26419C82.2068 8.15539 81.5485 8.04659 80.2318 8.04659H77.379L75.1845 13.3776Z" fill="#3963CD"/>
<path d="M116.319 16.6413C116.539 15.5533 116.978 14.3565 117.526 13.1598C118.294 11.5278 119.282 10.1135 120.489 8.91669C121.696 7.71993 123.012 6.74075 124.548 6.08797C126.085 5.43519 127.73 5 129.486 5C131.79 5 133.546 5.76158 134.753 7.17594C135.96 8.5903 136.179 10.4399 135.74 12.8334C135.301 14.7917 134.423 16.6413 133.107 18.4908C131.79 20.3404 130.144 21.7548 128.389 22.7339C126.523 23.7131 124.658 24.2571 122.573 24.2571C120.818 24.2571 119.391 23.8219 118.404 23.0603C117.416 22.2987 116.758 21.3196 116.429 20.1228C116.1 19.0348 116.1 17.8381 116.319 16.6413ZM120.269 16.6413C119.94 17.9469 120.159 18.926 120.818 19.7964C121.476 20.6668 122.354 21.102 123.671 21.102C124.768 21.102 125.865 20.7756 126.962 20.1228C128.06 19.47 129.157 18.382 130.035 17.0765C131.022 15.6621 131.571 14.3565 131.9 13.051C132.229 11.6366 132.01 10.4399 131.461 9.56948C130.803 8.6991 129.925 8.37271 128.608 8.37271C126.743 8.37271 124.987 9.24309 123.341 10.9838C121.696 12.6158 120.708 14.5741 120.269 16.6413Z" fill="#F6F9FD"/>
<path d="M136.072 17.8383L139.802 17.6207C139.583 18.8175 139.583 19.5791 139.912 19.9055C140.351 20.5583 141.338 20.8846 142.875 20.8846C144.191 20.8846 145.179 20.6671 145.837 20.2319C146.495 19.7967 146.934 19.2527 147.044 18.5999C147.154 18.0559 147.044 17.6207 146.605 17.1855C146.386 16.8592 145.508 16.424 144.191 15.88C142.875 15.2272 141.887 14.6832 141.338 14.3568C140.79 13.9216 140.351 13.3776 140.131 12.7249C139.912 12.0721 139.912 11.3105 140.022 10.4401C140.351 8.91697 141.229 7.6114 142.655 6.52343C144.081 5.54426 145.837 5.00027 148.031 5.00027C150.226 5.00027 151.872 5.54426 152.859 6.52343C153.847 7.50261 154.286 8.91697 153.957 10.5489L150.116 10.6577C150.226 9.78735 150.007 9.13456 149.568 8.59058C149.129 8.15539 148.361 7.829 147.263 7.829C146.166 7.829 145.398 8.04659 144.85 8.37298C144.301 8.69938 143.972 9.24336 143.862 9.78735C143.752 10.3313 143.862 10.7665 144.191 11.0929C144.52 11.4193 145.398 11.9633 146.715 12.5073C148.69 13.3776 149.897 14.1392 150.445 14.792C151.104 15.6624 151.323 16.7504 151.104 18.0559C150.775 19.6879 149.787 21.1022 148.251 22.1902C146.715 23.2782 144.74 23.931 142.326 23.931C140.68 23.931 139.363 23.7134 138.266 23.1694C137.169 22.6254 136.511 21.8638 136.181 20.8846C135.852 20.1231 135.852 19.0351 136.072 17.8383Z" fill="#F6F9FD"/>
<path d="M160.21 23.4958H156.26L162.953 8.04659H157.358L158.674 5.00027H173.706L172.39 8.04659H166.903L160.21 23.4958Z" fill="#F6F9FD"/>
<path d="M167.784 20.0223H171.515L169.978 23.5038H166.248L167.784 20.0223Z" fill="#F6F9FD"/>
<path d="M173.6 23.4958L181.61 5.00027H185.56L182.159 12.8337L192.692 5.00027H197.959L187.755 12.2897L191.595 23.4958H187.206L184.463 14.6832L180.074 17.8383L177.66 23.4958H173.6Z" fill="#F6F9FD"/>
<path d="M192.36 23.4958L193.567 20.5583L207.283 8.04659H198.395L199.712 5.00027H213.427L212.33 7.9378L198.505 20.5583C199.712 20.5583 200.37 20.5583 200.59 20.5583C201.467 20.5583 202.565 20.5583 203.991 20.5583H208.49L207.173 23.6046L192.36 23.4958Z" fill="#F6F9FD"/>
<path d="M90.5479 23.489H86.556L93.4893 5.00027H98.1115L90.5479 23.489Z" fill="#3963CD"/>
<path d="M99.7504 23.4958H95.8004L103.81 5.00027H111.6C113.027 5.00027 114.014 5.10907 114.782 5.43546C115.55 5.76185 115.989 6.30584 116.319 6.95862C116.648 7.7202 116.648 8.59058 116.428 9.56975C116.209 10.5489 115.88 11.4193 115.221 12.2897C114.673 13.1601 114.014 13.9216 113.356 14.4656C112.698 15.0096 112.039 15.4448 111.381 15.6624C110.723 15.9888 109.845 16.0976 108.748 16.3152C108.089 16.424 106.992 16.424 105.237 16.424H102.713L99.7504 23.4958ZM104.03 13.3776H105.237C107.321 13.3776 108.748 13.2689 109.516 13.0513C110.284 12.8337 110.942 12.3985 111.381 11.8545C111.93 11.3105 112.259 10.6577 112.368 10.0049C112.478 9.56975 112.478 9.24336 112.259 8.91697C112.149 8.59058 111.93 8.37298 111.491 8.26419C111.052 8.15539 110.393 8.04659 109.077 8.04659H106.224L104.03 13.3776Z" fill="#F6F9FD"/>
<path d="M59.8126 19.3615H52.2417L49.0597 23.4958H45L59.8126 5.00027H64.2015L63.214 23.4958H59.4834L59.8126 19.3615ZM60.032 16.3152L60.4709 8.91697L54.2167 16.424L60.032 16.3152Z" fill="#3963CD"/>
<path d="M36.9773 9.01827C30.9135 8.43714 24.8498 7.856 20.6426 7.48772C16.4355 7.11945 14.3347 6.7463 12.234 6.37316C10.3118 6.04786 8.34772 5.5216 6.52039 4.84221C5.13943 4.28243 3.75847 3.72264 2.51422 3.00974C3.99697 4.26094 5.61644 5.35901 7.37261 6.30397C9.88483 7.64125 12.5812 8.64837 15.3724 9.30141C18.253 9.97836 21.0916 10.4544 24.067 10.7772L28.9409 11.5139C27.9895 12.2078 27.2822 13.0619 26.6405 14.0285C26.088 15.019 25.8927 16.1051 25.9652 17.2631C26.0432 18.043 26.2998 18.8708 26.7825 19.5694C27.5902 17.9832 28.5528 16.5333 29.581 15.1959C30.7221 13.7939 31.9944 12.6167 33.4452 11.4874C34.557 10.5519 35.7344 9.72888 36.9773 9.01827Z" fill="#F6F9FD"/>
<path d="M9.31778e-05 20.2713C5.8692 20.8337 11.7383 21.3962 15.8103 21.7527C19.8824 22.1091 21.9157 22.4703 23.949 22.8315C25.8095 23.1463 27.7105 23.6557 29.4792 24.3133C30.8158 24.8551 32.1524 25.3969 33.3567 26.0869C31.9216 24.8759 30.3541 23.813 28.6543 22.8984C26.2228 21.6041 23.613 20.6293 20.9113 19.9972C18.1233 19.342 15.3758 18.8813 12.4959 18.5688L7.77849 17.8558C8.69934 17.1842 9.38392 16.3575 10.005 15.4219C10.5398 14.4632 10.7289 13.4119 10.6587 12.2912C10.5831 11.5363 10.3348 10.7351 9.86765 10.0589C9.08582 11.5942 8.15413 12.9975 7.15898 14.292C6.05448 15.649 4.82306 16.7884 3.41884 17.8814C2.3427 18.7868 1.20312 19.5835 9.31778e-05 20.2713Z" fill="#3963CD"/>
</svg>
