<svg width="128" height="128" viewBox="0 0 128 128" fill="none" xmlns="http://www.w3.org/2000/svg">
<path fill-rule="evenodd" clip-rule="evenodd" d="M64 128C99.3462 128 128 99.3462 128 64C128 28.6538 99.3462 0 64 0C28.6538 0 0 28.6538 0 64C0 99.3462 28.6538 128 64 128ZM78.5985 48.92L68.4865 60.44C76.5505 61.72 80.6465 66.712 80.6465 73.304C80.6465 80.856 74.8225 87.768 62.0865 87.768C55.8145 87.768 49.3505 86.04 44.9985 82.968L49.0305 75.032C52.4225 77.5919 57.1585 79.0639 61.8305 79.0639C67.0145 79.0639 70.2145 76.952 70.2145 73.304C70.2145 69.912 67.7185 67.8 61.8305 67.8H57.0945V60.952L66.3105 50.52H47.2385V42.2H78.5985V48.92Z" fill="#3963CD"/>
</svg>
