<svg width="128" height="128" viewBox="0 0 128 128" fill="none" xmlns="http://www.w3.org/2000/svg">
<path fill-rule="evenodd" clip-rule="evenodd" d="M64 128C99.3462 128 128 99.3462 128 64C128 28.6538 99.3462 0 64 0C28.6538 0 0 28.6538 0 64C0 99.3462 28.6538 128 64 128ZM72.133 68.824L61.829 78.552H81.093V87H47.237V80.28L64.517 63.96C68.485 60.184 69.189 57.88 69.189 55.704C69.189 52.184 66.757 50.136 62.021 50.136C58.181 50.136 54.917 51.608 52.741 54.616L45.189 49.752C48.645 44.696 54.917 41.432 62.981 41.432C72.965 41.432 79.621 46.552 79.621 54.68C79.621 59.032 78.405 63 72.133 68.824Z" fill="#3963CD"/>
</svg>
