<svg width="234" height="34" viewBox="0 0 234 34" fill="none" xmlns="http://www.w3.org/2000/svg">
<path d="M14.7559 20.1973C14.7559 19.2949 14.4336 18.5918 13.7891 18.0879C13.1562 17.584 12.0371 17.0625 10.4316 16.5234C8.82617 15.9844 7.51367 15.4629 6.49414 14.959C3.17773 13.3301 1.51953 11.0918 1.51953 8.24414C1.51953 6.82617 1.92969 5.57812 2.75 4.5C3.58203 3.41016 4.75391 2.56641 6.26562 1.96875C7.77734 1.35937 9.47656 1.05469 11.3633 1.05469C13.2031 1.05469 14.8496 1.38281 16.3027 2.03906C17.7676 2.69531 18.9043 3.63281 19.7129 4.85156C20.5215 6.05859 20.9258 7.44141 20.9258 9H14.7734C14.7734 7.95703 14.4512 7.14844 13.8066 6.57422C13.1738 6 12.3125 5.71289 11.2227 5.71289C10.1211 5.71289 9.24805 5.95898 8.60352 6.45117C7.9707 6.93164 7.6543 7.54687 7.6543 8.29688C7.6543 8.95312 8.00586 9.55078 8.70898 10.0898C9.41211 10.6172 10.6484 11.168 12.418 11.7422C14.1875 12.3047 15.6406 12.9141 16.7773 13.5703C19.543 15.1641 20.9258 17.3613 20.9258 20.1621C20.9258 22.4004 20.082 24.1582 18.3945 25.4355C16.707 26.7129 14.3926 27.3516 11.4512 27.3516C9.37695 27.3516 7.49609 26.9824 5.80859 26.2441C4.13281 25.4941 2.86719 24.4746 2.01172 23.1855C1.16797 21.8848 0.746094 20.3906 0.746094 18.7031H6.93359C6.93359 20.0742 7.28516 21.0879 7.98828 21.7441C8.70312 22.3887 9.85742 22.7109 11.4512 22.7109C12.4707 22.7109 13.2734 22.4941 13.8594 22.0605C14.457 21.6152 14.7559 20.9941 14.7559 20.1973ZM34.5312 27C34.3203 26.6133 34.1328 26.0449 33.9688 25.2949C32.8789 26.666 31.3555 27.3516 29.3984 27.3516C27.6055 27.3516 26.082 26.8125 24.8281 25.7344C23.5742 24.6445 22.9473 23.2793 22.9473 21.6387C22.9473 19.5762 23.709 18.0176 25.2324 16.9629C26.7559 15.9082 28.9707 15.3809 31.877 15.3809H33.7051V14.3789C33.7051 12.6328 32.9492 11.7598 31.4375 11.7598C30.0312 11.7598 29.3281 12.4512 29.3281 13.834H23.4043C23.4043 11.9941 24.1836 10.5 25.7422 9.35156C27.3125 8.20313 29.3105 7.62891 31.7363 7.62891C34.1621 7.62891 36.0781 8.2207 37.4844 9.4043C38.8906 10.5879 39.6113 12.2109 39.6465 14.2734V22.6934C39.6699 24.4395 39.9395 25.7754 40.4551 26.7012V27H34.5312ZM30.8223 23.1328C31.5605 23.1328 32.1699 22.9746 32.6504 22.6582C33.1426 22.3418 33.4941 21.9844 33.7051 21.5859V18.5449H31.9824C29.9199 18.5449 28.8887 19.4707 28.8887 21.3223C28.8887 21.8613 29.0703 22.3008 29.4336 22.6406C29.7969 22.9688 30.2598 23.1328 30.8223 23.1328ZM49.1914 27H43.25V0H49.1914V27ZM62.0586 27.3516C59.1406 27.3516 56.7793 26.4844 54.9746 24.75C53.1699 23.0039 52.2676 20.7363 52.2676 17.9473V17.4551C52.2676 15.5098 52.625 13.793 53.3398 12.3047C54.0664 10.8164 55.1211 9.66797 56.5039 8.85938C57.8867 8.03906 59.5273 7.62891 61.4258 7.62891C64.0977 7.62891 66.207 8.46094 67.7539 10.125C69.3008 11.7773 70.0742 14.0859 70.0742 17.0508V19.3535H58.2969C58.5078 20.4199 58.9707 21.2578 59.6855 21.8672C60.4004 22.4766 61.3262 22.7812 62.4629 22.7812C64.3379 22.7812 65.8027 22.125 66.8574 20.8125L69.5645 24.0117C68.8262 25.0312 67.7773 25.8457 66.418 26.4551C65.0703 27.0527 63.6172 27.3516 62.0586 27.3516ZM61.3906 12.1992C59.6562 12.1992 58.625 13.3477 58.2969 15.6445H64.2734V15.1875C64.2969 14.2383 64.0566 13.5059 63.5527 12.9902C63.0488 12.4629 62.3281 12.1992 61.3906 12.1992ZM78.0723 7.98047L78.2656 10.2129C79.6133 8.49023 81.4238 7.62891 83.6973 7.62891C86.0996 7.62891 87.7227 8.58398 88.5664 10.4941C89.8555 8.58398 91.7188 7.62891 94.1562 7.62891C98.0117 7.62891 99.9922 9.96094 100.098 14.625V27H94.1562V14.9941C94.1562 14.0215 93.9922 13.3125 93.6641 12.8672C93.3359 12.4219 92.7383 12.1992 91.8711 12.1992C90.6992 12.1992 89.8262 12.7207 89.252 13.7637L89.2695 14.0098V27H83.3281V15.0293C83.3281 14.0332 83.1699 13.3125 82.8535 12.8672C82.5371 12.4219 81.9336 12.1992 81.043 12.1992C79.9062 12.1992 79.0391 12.7207 78.4414 13.7637V27H72.5176V7.98047H78.0723ZM105.564 33.8906L102.576 32.4844L103.174 31.2891C103.994 29.7656 104.422 28.3125 104.457 26.9297V22.5352H109.203L109.186 26.3496C109.174 27.6973 108.828 29.0684 108.148 30.4629C107.469 31.8574 106.607 33 105.564 33.8906ZM144.096 14.7305C144.096 17.2266 143.633 19.4355 142.707 21.3574C141.781 23.2793 140.463 24.7617 138.752 25.8047C137.053 26.8359 135.113 27.3516 132.934 27.3516C130.754 27.3516 128.82 26.8535 127.133 25.8574C125.445 24.8496 124.127 23.4141 123.178 21.5508C122.24 19.6875 121.748 17.5488 121.701 15.1348V13.6934C121.701 11.1855 122.158 8.97656 123.072 7.06641C123.998 5.14453 125.316 3.66211 127.027 2.61914C128.75 1.57617 130.707 1.05469 132.898 1.05469C135.066 1.05469 137 1.57031 138.699 2.60156C140.398 3.63281 141.717 5.10352 142.654 7.01367C143.604 8.91211 144.084 11.0918 144.096 13.5527V14.7305ZM137.82 13.6582C137.82 11.1152 137.393 9.1875 136.537 7.875C135.693 6.55078 134.48 5.88867 132.898 5.88867C129.805 5.88867 128.17 8.20898 127.994 12.8496L127.977 14.7305C127.977 17.2383 128.393 19.166 129.225 20.5137C130.057 21.8613 131.293 22.5352 132.934 22.5352C134.492 22.5352 135.693 21.873 136.537 20.5488C137.381 19.2246 137.809 17.3203 137.82 14.8359V13.6582ZM152.445 7.98047L152.639 10.2129C153.951 8.49023 155.762 7.62891 158.07 7.62891C160.051 7.62891 161.527 8.2207 162.5 9.4043C163.484 10.5879 163.994 12.3691 164.029 14.748V27H158.088V14.9941C158.088 14.0332 157.895 13.3301 157.508 12.8848C157.121 12.4277 156.418 12.1992 155.398 12.1992C154.238 12.1992 153.377 12.6562 152.814 13.5703V27H146.891V7.98047H152.445ZM173.574 27H167.633V0H173.574V27ZM183.488 27H177.547V7.98047H183.488V27ZM177.195 3.07617C177.195 2.23242 177.5 1.54102 178.109 1.00195C178.719 0.462891 179.51 0.193359 180.482 0.193359C181.455 0.193359 182.246 0.462891 182.855 1.00195C183.465 1.54102 183.77 2.23242 183.77 3.07617C183.77 3.91992 183.465 4.61133 182.855 5.15039C182.246 5.68945 181.455 5.95898 180.482 5.95898C179.51 5.95898 178.719 5.68945 178.109 5.15039C177.5 4.61133 177.195 3.91992 177.195 3.07617ZM192.594 7.98047L192.787 10.2129C194.1 8.49023 195.91 7.62891 198.219 7.62891C200.199 7.62891 201.676 8.2207 202.648 9.4043C203.633 10.5879 204.143 12.3691 204.178 14.748V27H198.236V14.9941C198.236 14.0332 198.043 13.3301 197.656 12.8848C197.27 12.4277 196.566 12.1992 195.547 12.1992C194.387 12.1992 193.525 12.6562 192.963 13.5703V27H187.039V7.98047H192.594ZM216.676 27.3516C213.758 27.3516 211.396 26.4844 209.592 24.75C207.787 23.0039 206.885 20.7363 206.885 17.9473V17.4551C206.885 15.5098 207.242 13.793 207.957 12.3047C208.684 10.8164 209.738 9.66797 211.121 8.85938C212.504 8.03906 214.145 7.62891 216.043 7.62891C218.715 7.62891 220.824 8.46094 222.371 10.125C223.918 11.7773 224.691 14.0859 224.691 17.0508V19.3535H212.914C213.125 20.4199 213.588 21.2578 214.303 21.8672C215.018 22.4766 215.943 22.7812 217.08 22.7812C218.955 22.7812 220.42 22.125 221.475 20.8125L224.182 24.0117C223.443 25.0312 222.395 25.8457 221.035 26.4551C219.688 27.0527 218.234 27.3516 216.676 27.3516ZM216.008 12.1992C214.273 12.1992 213.242 13.3477 212.914 15.6445H218.891V15.1875C218.914 14.2383 218.674 13.5059 218.17 12.9902C217.666 12.4629 216.945 12.1992 216.008 12.1992ZM232.971 18.8965H228.172L227.416 1.40625H233.727L232.971 18.8965ZM227.24 24.3457C227.24 23.4785 227.551 22.7695 228.172 22.2188C228.805 21.6562 229.59 21.375 230.527 21.375C231.465 21.375 232.244 21.6562 232.865 22.2188C233.498 22.7695 233.814 23.4785 233.814 24.3457C233.814 25.2129 233.498 25.9277 232.865 26.4902C232.244 27.041 231.465 27.3164 230.527 27.3164C229.59 27.3164 228.805 27.041 228.172 26.4902C227.551 25.9277 227.24 25.2129 227.24 24.3457Z" fill="white"/>
</svg>
