<svg width="671" height="283" viewBox="0 0 671 283" fill="none" xmlns="http://www.w3.org/2000/svg">
<path d="M671 32.6478C560.965 22.1023 450.93 11.5569 374.587 4.87408C298.243 -1.80878 260.122 -8.57992 222.001 -15.3511C187.12 -21.254 151.48 -30.8038 118.321 -43.1321C93.2618 -53.2901 68.2026 -63.448 45.6242 -76.3845C72.5305 -53.68 101.918 -33.7541 133.786 -16.6067C179.373 7.66002 228.302 25.9355 278.952 37.7856C331.223 50.0698 382.734 58.7072 436.727 64.5661L525.169 77.9342C507.905 90.525 495.071 106.024 483.426 123.564C473.401 141.538 469.855 161.248 471.171 182.26C472.587 196.413 477.244 211.434 486.001 224.111C500.659 195.327 518.127 169.017 536.784 144.748C557.492 119.307 580.578 97.946 606.905 77.4536C627.08 60.4779 648.445 45.5426 671 32.6478Z" fill="#3963CD" fill-opacity="0.05"/>
<path d="M0.00164795 236.847C106.504 247.054 213.006 257.261 286.898 263.729C360.791 270.198 397.688 276.751 434.585 283.305C468.346 289.019 502.842 298.262 534.937 310.194C559.191 320.026 583.446 329.858 605.299 342.379C579.257 320.404 550.813 301.117 519.968 284.521C475.845 261.033 428.487 243.344 379.462 231.875C328.87 219.985 279.012 211.625 226.754 205.954L141.15 193.015C157.86 180.828 170.283 165.827 181.554 148.85C191.257 131.453 194.688 112.376 193.416 92.0383C192.044 78.3397 187.537 63.8009 179.061 51.5313C164.874 79.3913 147.967 104.856 129.909 128.346C109.866 152.971 87.5205 173.646 62.039 193.48C42.5113 209.911 21.8322 224.366 0.00164795 236.847Z" fill="#3963CD" fill-opacity="0.05"/>
</svg>
